# xmcd
#
# Track frame offsets:
#	150
#	13246
#	23858
#	36374
#	48017
#	60936
#	70718
#	84745
#	97098
#	108250
#	125767
#	139998
#	150676
#	161612
#	172011
#	184069
#	193722
#
# Disc length: 2720 seconds
#
# Revision: 0
# Processed by: cddbd v1.5.2PL0 Copyright (c) Steve Scherf et al.
# Submitted via: dBpowerAMP V4.0
#
DISCID=e90a9e11
DTITLE=Various Artist - Blues Beginnings
DYEAR=2005
DGENRE=Blues
TTITLE0=Mussy Haired Woman - Lightnin' Hopkins
TTITLE1=Jukebox Shuffle - Lowell Fulson
TTITLE2=Mattie Mae - Baby Boy Warren
TTITLE3=Fine Girls - J.B. Lenoir
TTITLE4=Mr. Fine - mabel Scott
TTITLE5=Salty Dog - Marvin Phillips
TTITLE6=Sweet Angel - Earl Hooker
TTITLE7=I'm Not Your Fool Anymore - Walter Spriggs
TTITLE8=That Ain't Right - Henry Gray
TTITLE9=Blues After Hours - Aristocrats
TTITLE10=In The Evening - Joe Williams
TTITLE11=A Fool No More - Eddie Hope and His Mannish Boys
TTITLE12=You Can't Beat The Horses - Big Boy Groves
TTITLE13=1958 Blues - Little Sammy Davis
TTITLE14=Falling Rain Blues - Little Willie Foster
TTITLE15=Do What You Wanna Do - Harmonica Slim
TTITLE16=Ridin' Home - Leslie Louis
EXTD=
EXTT0=
EXTT1=
EXTT2=
EXTT3=
EXTT4=
EXTT5=
EXTT6=
EXTT7=
EXTT8=
EXTT9=
EXTT10=
EXTT11=
EXTT12=
EXTT13=
EXTT14=
EXTT15=
EXTT16=
PLAYORDER=
